<?xml version="1.0" standalone="no"?>
<!DOCTYPE svg PUBLIC "-//W3C//DTD SVG 20010904//EN"
 "http://www.w3.org/TR/2001/REC-SVG-20010904/DTD/svg10.dtd">
<svg version="1.0" xmlns="http://www.w3.org/2000/svg"
 width="2136.000000pt" height="2136.000000pt" viewBox="0 0 2136.000000 2136.000000"
 preserveAspectRatio="xMidYMid meet">
<metadata>
Created by potrace 1.14, written by Peter Selinger 2001-2017
</metadata>
<g transform="translate(0.000000,2136.000000) scale(0.100000,-0.100000)"
fill="#000000" stroke="none">
<path d="M2343 14719 c-71 -7 -179 -36 -238 -66 -63 -32 -177 -127 -221 -186
-75 -101 -118 -202 -131 -317 -4 -30 -7 -1097 -7 -2370 l0 -2315 27 -85 c94
-302 353 -483 667 -467 298 15 525 209 607 518 3 13 7 412 8 885 2 629 6 871
14 897 17 51 77 105 135 122 64 19 101 19 159 -1 52 -18 120 -86 132 -132 6
-25 85 -233 105 -277 5 -11 45 -106 88 -212 91 -221 126 -284 202 -360 140
-139 301 -201 511 -198 188 3 334 62 457 182 62 61 79 82 119 148 25 41 23 34
458 1280 171 492 184 525 185 505 1 -8 3 -121 4 -250 2 -129 6 -244 9 -255 57
-210 171 -362 335 -448 246 -129 521 -100 739 79 92 75 183 227 214 354 10 44
13 283 13 1200 -1 630 -2 1165 -4 1190 -6 72 -44 184 -90 261 -78 132 -203
234 -347 284 -94 33 -142 38 -343 37 -140 -1 -190 -5 -252 -21 -124 -32 -227
-91 -310 -177 -89 -92 -90 -94 -304 -604 -349 -833 -315 -753 -371 -868 -140
-285 -468 -421 -782 -322 -105 33 -229 119 -302 207 -18 22 -89 141 -89 149 0
3 -8 24 -19 47 -10 23 -58 137 -105 252 -48 116 -105 252 -127 303 -21 51 -39
95 -39 97 0 3 -10 27 -21 53 -36 80 -47 105 -69 162 -12 30 -28 69 -35 85 -8
17 -38 89 -69 162 -84 204 -154 294 -296 380 -76 47 -206 89 -285 93 -118 5
-265 5 -332 -1z"/>
<path d="M14600 13141 c1 -950 0 -943 56 -1052 31 -62 104 -136 170 -173 106
-60 233 -90 429 -102 l95 -6 0 171 0 171 -50 0 c-59 0 -149 32 -178 63 -53 56
-52 43 -52 957 l0 848 -235 -1 -235 0 0 -876z"/>
<path d="M8175 13514 c-247 -39 -408 -158 -459 -336 -23 -80 -30 -168 -14
-169 15 -1 372 -1 406 0 19 1 22 6 22 39 0 84 72 144 179 147 96 4 154 -24
189 -90 11 -23 16 -63 16 -165 l1 -135 -145 -1 c-175 -1 -241 -8 -340 -35
-106 -29 -190 -72 -254 -130 -96 -88 -139 -190 -137 -333 0 -99 7 -140 32
-213 48 -141 150 -237 299 -281 83 -25 245 -31 336 -12 60 13 153 65 206 117
l36 35 0 -43 c0 -24 1 -56 1 -71 l1 -27 214 1 c150 0 216 4 219 12 2 6 3 292
2 636 -2 541 -5 633 -19 683 -55 197 -208 323 -449 368 -82 15 -255 17 -342 3z
m331 -973 c18 -2 10 -268 -9 -314 -47 -112 -214 -150 -321 -74 -84 60 -90 258
-10 329 53 47 211 75 340 59z"/>
<path d="M10092 13515 c-71 -16 -127 -42 -189 -87 -29 -21 -54 -38 -56 -38 -1
0 -2 25 -2 55 l1 55 -225 -2 -226 -3 0 -840 0 -840 235 0 235 0 1 625 c0 552
2 629 16 655 67 126 279 130 345 5 l23 -43 0 -623 0 -623 235 1 236 1 -4 671
c-1 369 -6 684 -10 699 -58 223 -214 334 -481 341 -44 1 -105 -3 -134 -9z"/>
<path d="M13438 13525 c-2 -1 -32 -5 -68 -9 -191 -18 -356 -117 -434 -261 -73
-134 -85 -214 -85 -600 0 -370 10 -449 76 -582 100 -206 389 -315 733 -279 99
11 99 11 177 36 169 54 284 164 327 312 18 65 32 197 20 199 -42 7 -432 4
-440 -3 -7 -5 -12 -24 -12 -44 0 -55 -41 -126 -87 -151 -80 -43 -198 -32 -255
22 -49 47 -65 104 -65 240 l0 120 440 0 440 0 1 180 c1 230 -17 399 -47 455
-5 8 -15 31 -22 50 -21 50 -82 129 -136 173 -80 65 -193 112 -324 132 -39 7
-234 15 -239 10z m187 -356 c81 -44 103 -98 109 -272 1 -47 0 -90 -3 -94 -3
-5 -96 -9 -206 -8 l-200 0 -3 74 c-7 165 30 265 111 302 58 26 141 25 192 -2z"/>
<path d="M11131 12878 c1 -684 3 -704 61 -828 89 -185 269 -263 608 -262 385
1 580 117 635 379 16 73 18 179 19 733 l1 595 -236 3 -236 2 0 -604 c-1 -431
-4 -619 -13 -654 -20 -87 -79 -122 -193 -117 -91 4 -121 23 -153 94 -22 48
-23 74 -23 709 l-1 572 -235 0 -235 0 1 -622z"/>
<path d="M7464 11370 c-26 -6 -108 -48 -186 -95 -9 -5 -29 -17 -45 -26 -15 -8
-98 -55 -183 -104 -85 -48 -172 -97 -193 -109 -21 -12 -46 -26 -55 -31 -9 -6
-60 -34 -112 -64 -52 -30 -108 -62 -125 -71 -16 -10 -226 -129 -465 -265 -239
-136 -448 -256 -465 -265 -16 -10 -97 -56 -180 -102 -82 -47 -185 -106 -228
-132 -43 -25 -80 -46 -83 -46 -14 0 -116 -70 -151 -103 -49 -47 -106 -157
-135 -264 -18 -68 -22 -110 -24 -323 -4 -305 10 -397 84 -548 47 -97 87 -132
252 -225 110 -61 386 -218 400 -226 17 -11 157 -91 535 -307 138 -78 264 -150
282 -160 68 -40 260 -149 293 -167 19 -11 130 -74 245 -140 116 -66 230 -131
255 -145 25 -13 50 -28 55 -32 16 -12 126 -72 183 -100 121 -61 253 9 333 178
121 253 99 647 -47 838 -56 73 -64 79 -299 204 -44 23 -102 55 -130 70 -27 15
-119 64 -203 110 -200 108 -248 160 -300 320 -34 106 -44 171 -44 285 0 143
14 227 56 338 55 146 99 187 336 315 102 55 210 113 240 129 30 17 100 54 155
83 156 82 222 159 274 319 31 94 36 141 35 306 -1 133 -4 160 -28 240 -15 49
-39 111 -53 137 -72 133 -180 201 -279 178z"/>
<path d="M9446 11059 c-129 -23 -261 -66 -370 -120 -68 -34 -181 -102 -196
-119 -3 -3 -30 -25 -60 -50 -204 -167 -361 -423 -440 -720 -13 -50 -14 -54
-25 -125 -4 -27 -10 -61 -12 -75 -8 -45 -10 -372 -2 -414 4 -23 10 -62 13 -88
4 -26 9 -53 11 -60 2 -7 7 -24 9 -38 25 -135 103 -324 192 -465 87 -138 237
-292 368 -378 87 -57 243 -137 267 -137 8 0 19 -4 24 -9 14 -13 207 -60 290
-70 75 -10 334 -7 400 4 173 30 381 120 527 231 l47 35 14 -33 c7 -18 25 -61
38 -95 l24 -63 347 0 c271 0 348 3 349 13 0 6 1 623 2 1369 l2 1358 -338 0
-337 0 -9 -22 c-10 -27 -58 -134 -73 -165 l-11 -22 -36 28 c-112 89 -285 172
-439 211 -122 31 -128 32 -302 35 -130 2 -188 -1 -274 -16z m520 -829 c219
-56 376 -225 424 -455 36 -175 4 -359 -89 -501 -143 -222 -428 -316 -678 -223
-246 92 -398 341 -380 624 7 101 8 107 35 187 95 282 396 442 688 368z"/>
<path d="M13185 11063 c-33 -7 -69 -14 -80 -17 -48 -10 -156 -52 -226 -87 -88
-45 -161 -98 -242 -176 -33 -30 -62 -51 -66 -47 -4 5 -32 66 -62 136 l-54 128
-317 0 -318 0 0 -1365 0 -1365 450 0 450 0 1 753 c0 413 2 777 5 807 6 76 47
206 82 260 86 132 203 191 370 185 186 -7 293 -130 316 -365 2 -25 5 -404 5
-842 l1 -798 450 0 451 0 -4 938 c-2 515 -7 953 -11 972 -4 19 -14 64 -21 100
-17 79 -57 194 -97 274 -98 200 -286 378 -478 453 -94 37 -122 44 -235 63 -72
12 -300 8 -370 -7z"/>
<path d="M14913 10113 c3 -863 4 -891 24 -979 112 -475 413 -791 869 -908 136
-35 201 -41 414 -40 200 1 314 18 470 71 387 131 671 452 755 852 8 37 17 80
21 96 4 17 9 427 11 913 l4 882 -451 0 -450 0 -1 -782 c-1 -431 -1 -786 0
-790 3 -19 -30 -148 -47 -188 -58 -134 -182 -212 -336 -212 -177 0 -299 91
-360 267 -20 58 -21 81 -24 883 l-3 822 -450 0 -450 0 4 -887z"/>
<path d="M18545 10993 c-126 -8 -223 -44 -296 -110 -42 -38 -87 -106 -94 -142
-2 -12 -6 -25 -10 -30 -12 -21 -13 -152 -1 -202 32 -136 118 -227 255 -270
138 -42 270 -34 398 27 103 49 162 124 193 243 23 87 3 225 -42 299 -74 121
-236 195 -403 185z m106 -206 c100 -67 100 -311 -1 -370 -66 -39 -157 -25
-200 31 -59 74 -55 242 7 319 39 48 138 58 194 20z"/>
<path d="M19089 10963 c-1 -16 -1 -50 0 -112 l1 -48 70 2 70 2 1 -46 c0 -25 0
-154 0 -286 l0 -241 132 1 132 0 1 368 2 367 -22 0 c-284 6 -386 4 -387 -7z"/>
<path d="M19018 10054 c-115 -21 -191 -66 -252 -145 -47 -63 -67 -122 -71
-211 -5 -124 29 -220 102 -291 197 -192 611 -145 718 80 48 100 54 242 16 345
-64 169 -284 264 -513 222z m162 -179 c44 -13 82 -60 97 -118 19 -78 1 -198
-36 -241 -43 -50 -133 -64 -192 -30 -52 31 -81 96 -81 188 0 100 28 161 89
192 42 21 75 24 123 9z"/>
<path d="M18125 10040 c-8 -16 0 -160 9 -161 6 0 38 -2 71 -2 l60 -2 2 -265
c1 -146 2 -274 2 -285 1 -19 7 -20 127 -19 69 1 128 4 131 7 4 5 7 608 4 712
-1 20 -7 20 -202 20 -110 0 -202 -2 -204 -5z"/>
<path d="M18485 9143 c-107 -20 -185 -55 -242 -111 -144 -137 -146 -400 -5
-541 80 -80 171 -115 307 -120 291 -10 473 164 451 429 -14 174 -122 291 -307
334 -52 13 -159 17 -204 9z m162 -198 c39 -26 50 -42 69 -105 29 -97 -1 -227
-61 -266 -39 -26 -109 -30 -155 -9 -64 29 -93 92 -91 203 1 68 24 135 57 163
47 41 130 47 181 14z"/>
<path d="M19089 9107 c-1 -24 -1 -115 0 -134 1 -9 23 -13 74 -13 l72 0 -2
-285 -2 -286 132 3 132 3 0 365 0 365 -202 2 -203 3 -1 -23z"/>
</g>
</svg>
